<?xml version="1.0" encoding="UTF-8" standalone="no"?>
<!DOCTYPE svg PUBLIC "-//W3C//DTD SVG 1.1//EN" "http://www.w3.org/Graphics/SVG/1.1/DTD/svg11.dtd">
<svg width="100%" height="100%" viewBox="0 0 329 339" version="1.1" xmlns="http://www.w3.org/2000/svg" xmlns:xlink="http://www.w3.org/1999/xlink" xml:space="preserve" xmlns:serif="http://www.serif.com/" style="fill-rule:evenodd;clip-rule:evenodd;stroke-linejoin:round;stroke-miterlimit:2;">
    <g transform="matrix(0.423711,0,0,0.423711,-158.789,-112.611)">
        <g transform="matrix(2.3601,0,0,2.3601,-585.73,-53.4081)">
            <path d="M552.08,367.39C552.069,367.39 552.059,367.39 552.048,367.39L507.574,367.716C504.639,367.737 502.114,369.797 501.505,372.668C500.896,375.539 502.367,378.447 505.04,379.658L544.6,397.58C544.6,397.58 518.491,465.103 518.491,465.103C517.429,467.851 518.43,470.969 520.895,472.584C523.36,474.199 526.618,473.873 528.714,471.802L623.7,377.934C625.505,376.15 626.052,373.453 625.086,371.107C624.119,368.761 621.83,367.233 619.293,367.238L552.08,367.39Z" style="fill:rgb(100,117,144);"/>
        </g>
        <g transform="matrix(2.3601,0,0,2.3601,-585.73,-53.4081)">
            <path d="M483.834,341.056C441.196,339.789 406.969,304.776 406.969,261.832C406.969,220.706 438.291,186.896 478.378,182.956C496.66,154.275 528.743,135.241 565.237,135.241C609.966,135.241 648.07,163.835 662.247,203.719C663.787,203.572 665.248,203.479 666.474,203.479C704.449,203.479 735.281,234.31 735.281,272.285C735.281,310.113 704.688,340.851 666.917,341.091L666.474,341.092L483.834,341.092L483.834,341.056ZM668.018,232.675C689.18,233.486 706.114,250.924 706.114,272.285C706.114,294.077 688.492,311.787 666.732,311.924L666.474,311.933L666.474,311.925L636.994,311.925C656.214,293.226 668.163,267.081 668.163,238.166C668.163,236.326 668.114,234.497 668.018,232.675ZM480.512,212.061L536,267.55C533.162,292.523 511.962,311.925 486.229,311.925C458.582,311.925 436.136,289.479 436.136,261.832C436.136,236.1 455.538,214.899 480.511,212.061L480.512,212.061ZM565.237,311.925C605.946,311.925 638.996,278.875 638.996,238.166C638.996,197.458 605.946,164.408 565.237,164.408C540.452,164.408 518.505,176.659 505.13,195.431L561.218,251.52C563.953,254.255 565.49,257.964 565.49,261.832C565.49,280.016 559.366,296.769 549.068,310.144C554.272,311.31 559.683,311.925 565.237,311.925Z" style="fill:rgb(100,117,144);"/>
        </g>
    </g>
</svg>
